{"title":"That's.What.I.Am.[2011].DvdRip.XviD-Kna","uid":6684197,"size":1566005248,"categoryP":"video","categoryS":"movies","magnet":"?xt=urn:btih:064f9e41280cb7699ca5bab91261df255bde7381&amp;dn=That%5C%27s.What.I.Am.%5B2011%5D.DvdRip.XviD-Kna&amp;tr=udp%3A%2F%2Ftracker.openbittorrent.com%3A80&amp;tr=udp%3A%2F%2Fopen.demonii.com%3A1337&amp;tr=udp%3A%2F%2Ftracker.coppersurfer.tk%3A6969&amp;tr=udp%3A%2F%2Fexodus.desync.com%3A6969","seeders":0,"leechers":1,"uploader":"Jon.Pson","files":-1,"time":1316339892,"description":"A coming-of-age story that follows 12-year-old Andy Nichol (Chase Ellison), a bright student who, like most kids his age, will do anything to avoid conflict for fear of suffering overwhelming ridicule and punishment from his junior high school peers. Everyone's favorite teacher, Mr. Simon (Ed Harris), pairs Andy with the school's biggest outcast and social pariah, Stanley, aka &quot;Big G&quot; (Alexander Walters) on a critical term project. Sporting thick orange hair, a head too big for his body and ears too big for his head, &quot;Big G&quot; has been the object of ridicule since grade school. Before long, Andy will learn that there was truly a method behind Mr. Simon's madness as to why he teamed these two up. As the story unfolds, Mr. Simon finds himself the target of a malicious rumor after Principal Kelner (Amy Madigan) suspends a school bully for brutally beating up a female classmate who he thinks has &quot;cooties.&quot; When Andy watches &quot;Big G&quot; fearlessly confront the school bully, a series of events are triggered, which change the lives of both young men - and their teacher - forever. Much to Andy's surprise &quot;Big G&quot; is brilliant, kind, tolerant and a decent human being, who has more dignity than anyone Andy has ever encountered. \n\n\n\nGeneral\nComplete name                    : That's.What.I.Am.[2011].DvdRip.XviD-KnÃƒÂ£\\That's.What.I.Am.[2011].DvdRip.XviD-KnÃƒÂ£.avi\nFormat                           : AVI\nFormat/Info                      : Audio Video Interleave\nFile size                        : 1.46 GiB\nDuration                         : 1h 37mn\nOverall bit rate                 : 2 148 Kbps\nWriting application              : VirtualDubMod 1.5.4.1 (build 2178/release)\nWriting library                  : VirtualDubMod build 2178/release\n\nVideo\nID                               : 0\nFormat                           : MPEG-4 Visual\nFormat profile                   : Advanced Simple@L5\nFormat settings, BVOP            : 1\nFormat settings, QPel            : No\nFormat settings, GMC             : No warppoints\nFormat settings, Matrix          : Custom\nCodec ID                         : XVID\nCodec ID/Hint                    : XviD\nDuration                         : 1h 37mn\nBit rate                         : 1 693 Kbps\nWidth                            : 720 pixels\nHeight                           : 384 pixels\nDisplay aspect ratio             : 1.875\nFrame rate                       : 25.000 fps\nColor space                      : YUV\nChroma subsampling               : 4:2:0\nBit depth                        : 8 bits\nScan type                        : Progressive\nCompression mode                 : Lossy\nBits/(Pixel*Frame)               : 0.245\nStream size                      : 1.15 GiB (79%)\nWriting library                  : XviD 1.2.1 (UTC 2008-12-04)\n\nAudio\nID                               : 1\nFormat                           : AC-3\nFormat/Info                      : Audio Coding 3\nMode extension                   : CM (complete main)\nCodec ID                         : 2000\nDuration                         : 1h 37mn\nBit rate mode                    : Constant\nBit rate                         : 448 Kbps\nChannel(s)                       : 6 channels\nChannel positions                : Front: L C R, Side: L R, LFE\nSampling rate                    : 48.0 KHz\nBit depth                        : 16 bits\nCompression mode                 : Lossy\nStream size                      : 311 MiB (21%)\nAlignment                        : Split accross interleaves\nInterleave, duration             : 96 ms (2.40 video frames)\nInterleave, preload duration     : 96 ms\nLanguage                         : English\n\n","torrent":{"xt":"urn:btih:064f9e41280cb7699ca5bab91261df255bde7381","amp;dn":"That%5C%27s.What.I.Am.%5B2011%5D.DvdRip.XviD-Kna","amp;tr":["udp%3A%2F%2Ftracker.openbittorrent.com%3A80","udp%3A%2F%2Fopen.demonii.com%3A1337","udp%3A%2F%2Ftracker.coppersurfer.tk%3A6969","udp%3A%2F%2Fexodus.desync.com%3A6969"],"infoHash":"064f9e41280cb7699ca5bab91261df255bde7381","infoHashBuffer":{"type":"Buffer","data":[6,79,158,65,40,12,183,105,156,165,186,185,18,97,223,37,91,222,115,129]},"announce":[],"urlList":[]}}